<svg data-v-fde0c5aa="" xmlns="http://www.w3.org/2000/svg" viewBox="0 0 300 300" class="iconAbove" height="100px" width="100px" transform="rotate(0) scale(1, 1)"><!----><defs><!----></defs><rect fill="#eff5e9" x="0" y="0" width="300px" height="300px" class="logo-background-square"/><defs><!----></defs><g id="8de3da43-e70d-4e9c-8665-58322f50a3b5" fill="#ffffff" transform="matrix(3.0026560582931885,0,0,3.0026560582931885,19.189282832045834,150.83277615142484)"><path d="M0.97 17.24Q0.27 16.13 0.27 14.65Q0.27 13.17 1.00 12.02Q1.74 10.88 3.00 10.27Q4.25 9.66 5.79 9.66L5.79 9.66Q7.11 9.66 8.29 10.07L8.29 10.07Q8.89 10.28 9.27 10.67Q9.65 11.07 9.65 11.57Q9.65 12.08 9.33 12.33Q9.02 12.57 8.59 12.57Q8.16 12.57 7.98 12.50L7.98 12.50Q7.90 11.44 7.36 10.92Q6.82 10.40 5.76 10.40L5.76 10.40Q3.96 10.40 2.90 11.48Q1.83 12.56 1.83 14.29L1.83 14.29Q1.83 15.46 2.34 16.42Q2.84 17.38 3.76 17.94Q4.67 18.50 5.81 18.50L5.81 18.50Q6.58 18.50 7.18 18.33L7.18 18.33Q8.31 17.99 8.33 17.49L8.33 17.49Q8.33 17.30 8.33 17.04L8.33 17.04L8.33 16.22Q8.33 16.11 8.29 15.87Q8.25 15.62 8.24 15.51Q8.23 15.40 8.06 15.30Q7.88 15.20 7.68 15.16L7.68 15.16Q7.15 15.05 7.15 14.88Q7.15 14.72 7.22 14.60Q7.29 14.49 7.45 14.42Q7.60 14.36 7.75 14.31Q7.90 14.27 8.16 14.25L8.16 14.25Q8.51 14.23 9.21 14.23Q9.91 14.23 10.18 14.27L10.18 14.27Q10.82 14.40 10.82 14.87L10.82 14.87Q10.82 14.97 10.73 15.01Q10.63 15.05 10.58 15.07Q10.53 15.09 10.45 15.11L10.45 15.11Q9.88 15.24 9.77 15.49Q9.65 15.74 9.66 16.36L9.66 16.36L9.68 18.27Q9.43 18.34 8.95 18.60Q8.46 18.87 8.27 18.95L8.27 18.95Q6.96 19.50 5.52 19.50Q4.08 19.50 2.88 18.93Q1.67 18.35 0.97 17.24ZM13.05 19.32L13.05 19.32L12.46 19.33Q11.57 19.33 11.35 19.05L11.35 19.05Q11.26 18.93 11.26 18.75Q11.26 18.58 11.40 18.51Q11.53 18.44 11.70 18.44Q11.87 18.43 12.00 18.33Q12.14 18.23 12.14 18.01L12.14 18.01L12.14 14.64Q12.14 14.03 11.99 13.88Q11.85 13.74 11.75 13.70Q11.65 13.66 11.44 13.60Q11.22 13.54 11.09 13.47Q10.96 13.41 10.96 13.29L10.96 13.29Q10.96 12.74 12.43 12.74L12.43 12.74Q13.05 12.74 13.22 12.96Q13.38 13.17 13.38 13.95L13.38 13.95Q13.62 13.36 14.15 13.03Q14.69 12.69 15.25 12.69Q15.82 12.69 16.18 12.94Q16.55 13.18 16.55 13.55Q16.55 13.92 16.31 14.15Q16.07 14.37 15.72 14.37Q15.37 14.37 15.12 14.18Q14.88 14 14.80 13.71L14.80 13.71Q14.62 13.68 14.51 13.68L14.51 13.68Q13.44 13.68 13.44 16.13L13.44 16.13L13.44 18.01Q13.44 18.41 13.88 18.43Q14.32 18.46 14.32 18.79L14.32 18.79Q14.32 19.16 13.91 19.25L13.91 19.25Q13.60 19.32 13.05 19.32ZM17.92 18.57Q16.97 17.64 16.97 16.11Q16.97 14.57 17.93 13.61Q18.88 12.65 20.36 12.65L20.36 12.65Q21.53 12.65 22.33 13.40Q23.13 14.16 23.13 15.30L23.13 15.30Q23.13 15.85 22.26 15.85L22.26 15.85L18.30 15.85Q18.31 16.96 19.02 17.72Q19.72 18.48 20.79 18.48L20.79 18.48Q21.51 18.48 22.18 18.06L22.18 18.06Q22.53 17.84 22.63 17.84Q22.73 17.84 22.86 17.94Q22.98 18.04 22.98 18.18L22.98 18.18Q22.98 18.56 22.50 18.88Q22.02 19.20 21.44 19.35Q20.86 19.50 20.42 19.50L20.42 19.50Q18.87 19.50 17.92 18.57ZM21.88 15.13L21.88 15.13Q21.86 14.35 21.46 13.86Q21.07 13.36 20.31 13.36Q19.54 13.36 18.97 13.91Q18.40 14.46 18.37 15.16L18.37 15.16L19.97 15.16Q21.03 15.16 21.88 15.13ZM24.72 18.57Q23.78 17.64 23.78 16.11Q23.78 14.57 24.73 13.61Q25.68 12.65 27.16 12.65L27.16 12.65Q28.33 12.65 29.13 13.40Q29.93 14.16 29.93 15.30L29.93 15.30Q29.93 15.85 29.06 15.85L29.06 15.85L25.10 15.85Q25.12 16.96 25.82 17.72Q26.52 18.48 27.60 18.48L27.60 18.48Q28.31 18.48 28.98 18.06L28.98 18.06Q29.33 17.84 29.43 17.84Q29.53 17.84 29.66 17.94Q29.78 18.04 29.78 18.18L29.78 18.18Q29.78 18.56 29.30 18.88Q28.82 19.20 28.24 19.35Q27.66 19.50 27.22 19.50L27.22 19.50Q25.67 19.50 24.72 18.57ZM28.68 15.13L28.68 15.13Q28.66 14.35 28.27 13.86Q27.87 13.36 27.11 13.36Q26.35 13.36 25.77 13.91Q25.20 14.46 25.17 15.16L25.17 15.16L26.77 15.16Q27.84 15.16 28.68 15.13ZM32.72 19.32L32.72 19.32L32.13 19.33Q31.23 19.33 31.02 19.05L31.02 19.05Q30.93 18.93 30.93 18.75Q30.93 18.58 31.06 18.51Q31.20 18.44 31.37 18.44Q31.53 18.43 31.67 18.33Q31.81 18.23 31.81 18.01L31.81 18.01L31.81 14.11Q31.81 13.71 31.32 13.63L31.32 13.63Q30.97 13.58 30.90 13.51Q30.83 13.45 30.83 13.28Q30.83 13.11 31.07 12.97L31.07 12.97Q31.47 12.73 32.08 12.73Q32.70 12.73 32.87 12.90Q33.04 13.08 33.04 13.68L33.04 13.68Q33.98 12.62 35.62 12.62L35.62 12.62Q36.96 12.62 37.51 13.35Q38.07 14.08 38.07 15.55L38.07 15.55L38.07 18.01Q38.07 18.41 38.51 18.43Q38.95 18.46 38.95 18.79L38.95 18.79Q38.95 19.15 38.53 19.25L38.53 19.25Q38.21 19.32 37.66 19.32L37.66 19.32L37.07 19.33Q36.18 19.33 35.96 19.05L35.96 19.05Q35.87 18.93 35.87 18.75Q35.87 18.58 36.00 18.51Q36.14 18.44 36.31 18.44Q36.48 18.43 36.61 18.33Q36.75 18.23 36.75 18.01L36.75 18.01L36.75 16.02Q36.75 14.75 36.46 14.16L36.46 14.16Q36.13 13.50 35.14 13.50L35.14 13.50Q33.94 13.50 33.51 14.14L33.51 14.14Q33.11 14.74 33.11 16.06L33.11 16.06L33.11 18.01Q33.11 18.41 33.55 18.43Q33.99 18.46 33.99 18.79L33.99 18.79Q33.99 19.16 33.57 19.25L33.57 19.25Q33.27 19.32 32.72 19.32ZM46.13 10.47L46.13 10.47Q45.29 10.47 44.82 10.68L44.82 10.68Q43.96 11.08 43.96 11.73L43.96 11.73Q43.96 12.08 44.16 12.28L44.16 12.28Q44.69 12.84 45.54 13.22L45.54 13.22Q46.05 13.45 47.03 13.80Q48.00 14.16 48.34 14.31Q48.69 14.47 49.11 14.74Q49.53 15.00 49.80 15.29L49.80 15.29Q50.46 15.98 50.46 16.87L50.46 16.87Q50.46 17.51 50.11 18.02Q49.77 18.53 49.19 18.84L49.19 18.84Q48.01 19.48 46.50 19.48L46.50 19.48Q44.46 19.48 43.17 18.77L43.17 18.77Q42.74 18.53 42.46 18.16Q42.19 17.78 42.19 17.35Q42.19 16.93 42.45 16.68Q42.71 16.43 43.19 16.43Q43.67 16.43 43.94 16.77Q44.21 17.10 44.21 17.64L44.21 17.64Q44.21 17.86 44.17 18.10L44.17 18.10Q45.21 18.63 46.40 18.63L46.40 18.63Q47.44 18.63 48.18 18.32L48.18 18.32Q49.02 17.96 49.02 17.06L49.02 17.06Q49.02 16.13 47.15 15.41L47.15 15.41Q46.83 15.29 46.18 15.07L46.18 15.07Q44.84 14.60 44.16 14.25L44.16 14.25Q42.50 13.37 42.50 12.05L42.50 12.05Q42.50 11.43 42.83 10.94Q43.17 10.46 43.73 10.18L43.73 10.18Q44.86 9.62 46.38 9.62L46.38 9.62Q48.17 9.62 49.27 10.21L49.27 10.21Q49.65 10.42 49.89 10.76Q50.13 11.10 50.13 11.53Q50.13 11.96 49.84 12.23Q49.54 12.51 49.10 12.51Q48.67 12.51 48.46 12.47L48.46 12.47Q48.37 11.27 47.90 10.87Q47.43 10.47 46.13 10.47ZM57.16 16.17L57.16 16.17Q57.16 14.59 56.24 13.87L56.24 13.87Q55.76 13.50 55.10 13.50L55.10 13.50Q53.14 13.50 53.14 15.71L53.14 15.71L53.14 17.96Q53.69 18.68 55.04 18.68L55.04 18.68Q56.03 18.68 56.59 17.97Q57.16 17.26 57.16 16.17ZM52.75 22.12L52.75 22.12L52.16 22.13Q51.26 22.13 51.05 21.85L51.05 21.85Q50.96 21.73 50.96 21.56Q50.96 21.38 51.09 21.31Q51.23 21.25 51.40 21.24Q51.56 21.23 51.70 21.13Q51.84 21.03 51.84 20.82L51.84 20.82L51.84 14.65Q51.84 14.16 51.77 13.97Q51.69 13.78 51.44 13.69L51.44 13.69Q51.41 13.67 51.17 13.62L51.17 13.62Q50.65 13.49 50.65 13.28L50.65 13.28Q50.65 12.74 52.03 12.74L52.03 12.74Q52.61 12.74 52.84 12.88Q53.07 13.02 53.07 13.47L53.07 13.47Q53.07 13.60 53.07 13.67L53.07 13.67Q53.59 13.16 54.13 12.89Q54.66 12.63 55.49 12.63Q56.31 12.63 57.04 13.09Q57.76 13.56 58.13 14.32Q58.50 15.08 58.50 16.02L58.50 16.02Q58.50 17.50 57.52 18.46Q56.55 19.43 55.06 19.43L55.06 19.43Q54.22 19.43 53.14 18.87L53.14 18.87L53.14 20.82Q53.14 21.21 53.58 21.24Q54.02 21.26 54.02 21.59L54.02 21.59Q54.02 21.96 53.60 22.05L53.60 22.05Q53.30 22.12 52.75 22.12ZM65.97 19.32L65.97 19.32L65.39 19.33Q64.49 19.33 64.28 19.05L64.28 19.05Q64.18 18.93 64.18 18.75Q64.18 18.58 64.32 18.51Q64.46 18.44 64.62 18.44Q64.79 18.43 64.93 18.33Q65.06 18.23 65.06 18.01L65.06 18.01L65.07 16.02Q65.07 14.77 64.77 14.17L64.77 14.17Q64.44 13.50 63.40 13.50L63.40 13.50Q62.31 13.50 61.87 14.19L61.87 14.19Q61.48 14.83 61.48 16.06L61.48 16.06L61.48 18.01Q61.48 18.41 61.92 18.43Q62.36 18.46 62.36 18.79L62.36 18.79Q62.36 19.16 61.94 19.25L61.94 19.25Q61.64 19.32 61.09 19.32L61.09 19.32L60.50 19.33Q59.60 19.33 59.39 19.05L59.39 19.05Q59.29 18.93 59.29 18.75Q59.29 18.58 59.43 18.51Q59.57 18.44 59.74 18.44Q59.90 18.43 60.04 18.33Q60.18 18.23 60.18 18.01L60.18 18.01L60.18 10.57Q60.18 10.17 59.68 10.09L59.68 10.09Q59.34 10.04 59.27 9.97Q59.20 9.91 59.20 9.75Q59.20 9.60 59.34 9.48Q59.49 9.36 59.72 9.30L59.72 9.30Q60.13 9.19 60.63 9.19L60.63 9.19Q61.48 9.19 61.48 9.70L61.48 9.70L61.48 13.67Q62.41 12.62 63.83 12.62Q65.26 12.62 65.81 13.35Q66.37 14.08 66.37 15.55L66.37 15.55L66.36 18.01Q66.36 18.41 66.80 18.43Q67.25 18.46 67.25 18.79L67.25 18.79Q67.25 19.16 66.83 19.25L66.83 19.25Q66.52 19.32 65.97 19.32ZM68.77 18.57Q67.82 17.64 67.82 16.11Q67.82 14.57 68.77 13.61Q69.73 12.65 71.20 12.65L71.20 12.65Q72.37 12.65 73.18 13.40Q73.98 14.16 73.98 15.30L73.98 15.30Q73.98 15.85 73.10 15.85L73.10 15.85L69.15 15.85Q69.16 16.96 69.86 17.72Q70.57 18.48 71.64 18.48L71.64 18.48Q72.35 18.48 73.02 18.06L73.02 18.06Q73.38 17.84 73.48 17.84Q73.58 17.84 73.70 17.94Q73.83 18.04 73.83 18.18L73.83 18.18Q73.83 18.56 73.35 18.88Q72.86 19.20 72.28 19.35Q71.70 19.50 71.26 19.50L71.26 19.50Q69.71 19.50 68.77 18.57ZM72.72 15.13L72.72 15.13Q72.71 14.35 72.31 13.86Q71.91 13.36 71.15 13.36Q70.39 13.36 69.82 13.91Q69.25 14.46 69.21 15.16L69.21 15.16L70.81 15.16Q71.88 15.16 72.72 15.13ZM76.78 19.32L76.78 19.32L76.19 19.33Q75.30 19.33 75.09 19.05L75.09 19.05Q74.99 18.93 74.99 18.75Q74.99 18.58 75.13 18.51Q75.26 18.44 75.43 18.44Q75.60 18.43 75.74 18.33Q75.87 18.23 75.87 18.01L75.87 18.01L75.87 14.64Q75.87 14.03 75.73 13.88Q75.58 13.74 75.48 13.70Q75.38 13.66 75.17 13.60Q74.96 13.54 74.82 13.47Q74.69 13.41 74.69 13.29L74.69 13.29Q74.69 12.74 76.16 12.74L76.16 12.74Q76.78 12.74 76.95 12.96Q77.12 13.17 77.12 13.95L77.12 13.95Q77.35 13.36 77.89 13.03Q78.42 12.69 78.99 12.69Q79.55 12.69 79.92 12.94Q80.28 13.18 80.28 13.55Q80.28 13.92 80.04 14.15Q79.80 14.37 79.45 14.37Q79.11 14.37 78.86 14.18Q78.61 14 78.53 13.71L78.53 13.71Q78.35 13.68 78.24 13.68L78.24 13.68Q77.17 13.68 77.17 16.13L77.17 16.13L77.17 18.01Q77.17 18.41 77.61 18.43Q78.05 18.46 78.05 18.79L78.05 18.79Q78.05 19.16 77.64 19.25L77.64 19.25Q77.33 19.32 76.78 19.32ZM81.65 18.57Q80.71 17.64 80.71 16.11Q80.71 14.57 81.66 13.61Q82.61 12.65 84.09 12.65L84.09 12.65Q85.26 12.65 86.06 13.40Q86.86 14.16 86.86 15.30L86.86 15.30Q86.86 15.85 85.99 15.85L85.99 15.85L82.03 15.85Q82.04 16.96 82.75 17.72Q83.45 18.48 84.53 18.48L84.53 18.48Q85.24 18.48 85.91 18.06L85.91 18.06Q86.26 17.84 86.36 17.84Q86.46 17.84 86.59 17.94Q86.71 18.04 86.71 18.18L86.71 18.18Q86.71 18.56 86.23 18.88Q85.75 19.20 85.17 19.35Q84.59 19.50 84.15 19.50L84.15 19.50Q82.60 19.50 81.65 18.57ZM85.61 15.13L85.61 15.13Q85.59 14.35 85.20 13.86Q84.80 13.36 84.04 13.36Q83.28 13.36 82.70 13.91Q82.13 14.46 82.10 15.16L82.10 15.16L83.70 15.16Q84.77 15.16 85.61 15.13Z"/></g><defs><linearGradient gradientTransform="rotate(25)" id="d2cd4957-2464-4e8f-b588-8557a8174935" x1="0%" y1="0%" x2="100%" y2="0%"><stop offset="0%" stop-color="#ffffff" stop-opacity="1" data-originalstopcolor="#ffffff"/><stop offset="100%" stop-color="#ffffff" stop-opacity="1" data-originalstopcolor="#ffffff"/></linearGradient></defs><g id="9de24ad6-884a-448d-9e53-602e605a2008" stroke="none" fill="url(#d2cd4957-2464-4e8f-b588-8557a8174935)" transform="matrix(0.863174007711438,0,0,0.863174007711438,106.84269244663201,78.41897893535082)"><path d="M93.05 89.2c-.524-.196-10.382-3.822-27.054-5.432V72.845C82.253 71.459 95 59.493 95 44.981c0-7.665-3.494-17.399-9.12-25.403-6.616-9.413-14.799-14.597-23.042-14.597-17.596 0-30.838 24.266-30.838 40 0 14.83 12.085 26.619 27.997 27.882v10.441a165.145 165.145 0 00-5.5-.235v-3.061h-3v3.011c-.499-.005-.994-.011-1.5-.011-.509 0-1 .006-1.5.01v-3.01h-3v3.05c-1.021.021-2.023.048-3 .082v-3.132h-3v3.258c-2.574.131-4.971.309-7.215.519 1.441-2.02 2.218-4.598 2.218-7.659 0-5.984-3.389-23.35-13.766-23.35-9.901 0-13.234 16.035-13.234 23.35 0 5.235 1.945 8.952 5.588 10.949-4.201 1.164-6.231 2.149-6.433 2.25a2.999 2.999 0 00-1.341 4.025 3.003 3.003 0 004.025 1.342c.113-.058 11.701-5.684 40.658-5.684 25.066 0 40.794 5.752 40.946 5.809a3.002 3.002 0 003.863-1.755A3 3 0 0093.05 89.2zm-71.053-4.467v-9.438a1.48 1.48 0 00.328-.252l4.759-5a1.5 1.5 0 10-2.173-2.068l-2.914 3.062V65a1.5 1.5 0 10-3 0v11.888l-2.939-2.939a1.5 1.5 0 10-2.121 2.121l5 5c.018.018.042.023.061.04v3.578c-5.204-.506-7.497-3.391-7.497-8.562 0-5.719 2.79-19.35 9.234-19.35s9.766 13.631 9.766 19.35c-.001 5.33-2.892 8.237-8.504 8.607zm41-65.733a3 3 0 00-3 3v18.659l-10.698-9.17a2 2 0 10-2.603 3.037l13.302 11.401v11.911l-15.749-12.64a2 2 0 10-2.504 3.12l18.252 14.65v3.873C47.455 65.628 38 56.465 38 44.981c0-13.116 11.368-34 24.839-34 6.143 0 12.751 4.391 18.133 12.047C85.848 29.968 89 38.585 89 44.981c0 11.231-10.062 20.518-23.003 21.834V53.978l18.239-14.4a2 2 0 10-2.479-3.139l-15.76 12.443V36.956l10.267-8.4a2 2 0 00-2.533-3.095l-7.733 6.327V22a3.001 3.001 0 00-3.001-3z"/><circle cx="78.997" cy="54.009" r="3"/><circle cx="52.997" cy="23.008" r="3"/></g><!----></svg>